<?xml version="1.0" encoding="UTF-8"?>
<svg id="Layer_2" data-name="Layer 2" xmlns="http://www.w3.org/2000/svg" xmlns:xlink="http://www.w3.org/1999/xlink" viewBox="0 0 33.1 32">
  <defs>
    <style>
      .cls-1 {
        fill: none;
      }

      .cls-2 {
        fill: #d27c02;
      }

      .cls-3 {
        fill: #945400;
      }

      .cls-4 {
        fill: #dfdfdf;
      }

      .cls-5 {
        fill: #01e300;
      }

      .cls-6 {
        fill: #fdca4b;
      }

      .cls-7 {
        fill: #f60300;
      }

      .cls-8 {
        fill: #9f5b01;
      }

      .cls-9 {
        fill: #fff;
      }

      .cls-10 {
        fill: #4bfd3e;
      }

      .cls-11 {
        fill: #b76801;
      }

      .cls-12 {
        fill: #ffaf00;
      }

      .cls-13 {
        fill: #fd4f58;
      }

      .cls-14 {
        clip-path: url(#clippath);
      }
    </style>
    <clipPath id="clippath">
      <path class="cls-1" d="M30.43,20.6c.19-1.04.99-1.85,1.48-2.79.02-.04.04-.08.06-.13v-7.17s-.08-.07-.12-.11c-.41-.35-.96-.51-1.38-.85-.91-.75-.88-2.37.07-3.08.3-.23.67-.36.94-.62.22-.2.36-.47.48-.74V1.8c0-.99-.81-1.8-1.8-1.8H1.8C1.03,0,.37.49.11,1.18c.02.39.11.78.23,1.14.25.75.61,1.46.76,2.23.2,1.01,0,2.06-.05,3.09-.04.68-.01,1.35.01,2.03.02.64.05,1.28.07,1.92.06,1.67.13,3.39.78,4.93.07.17.15.35.14.54-.02.26-.21.47-.4.64-.54.48-1.2.88-1.67,1.4v3.55c.08.16.17.32.25.48.55,1.03,1.09,2.25.6,3.31-.12.27-.31.51-.4.79-.19.56.04,1.17.25,1.73.4,1,.79,2,1.19,3.01h28.27c.99,0,1.8-.81,1.8-1.8v-4.26c-.37-1.02-.84-2.02-1.21-3.04-.26-.72-.47-1.5-.33-2.26Z"/>
    </clipPath>
  </defs>
  <g id="Layer_1-2" data-name="Layer 1">
    <path class="cls-8" d="M31.55,20.63c.19-1.04.99-1.85,1.48-2.79.02-.04.04-.08.06-.13v-7.17s-.08-.07-.12-.11c-.41-.35-.96-.51-1.38-.85-.91-.75-.88-2.37.07-3.08.3-.23.67-.36.94-.62.22-.2.36-.47.48-.74V1.83c0-.99-.81-1.8-1.8-1.8H2.93C2.16.03,1.49.52,1.24,1.21c.02.39.11.78.23,1.14.25.75.61,1.46.76,2.23.2,1.01,0,2.06-.05,3.09-.04.68-.01,1.35.01,2.03.02.64.05,1.28.07,1.92.06,1.67.13,3.39.78,4.93.07.17.15.35.14.54-.02.26-.21.47-.4.64-.54.48-1.2.88-1.67,1.4v3.55c.08.16.17.32.25.48.55,1.03,1.09,2.25.6,3.31-.12.27-.31.51-.4.79-.19.56.04,1.17.25,1.73.4,1,.79,2,1.19,3.01h28.27c.99,0,1.8-.81,1.8-1.8v-4.26c-.37-1.02-.84-2.02-1.21-3.04-.26-.72-.47-1.5-.33-2.26Z"/>
    <path class="cls-2" d="M30.43,20.6c.19-1.04.99-1.85,1.48-2.79.02-.04.04-.08.06-.13v-7.17s-.08-.07-.12-.11c-.41-.35-.96-.51-1.38-.85-.91-.75-.88-2.37.07-3.08.3-.23.67-.36.94-.62.22-.2.36-.47.48-.74V1.8c0-.99-.81-1.8-1.8-1.8H1.8C1.03,0,.37.49.11,1.18c.02.39.11.78.23,1.14.25.75.61,1.46.76,2.23.2,1.01,0,2.06-.05,3.09-.04.68-.01,1.35.01,2.03.02.64.05,1.28.07,1.92.06,1.67.13,3.39.78,4.93.07.17.15.35.14.54-.02.26-.21.47-.4.64-.54.48-1.2.88-1.67,1.4v3.55c.08.16.17.32.25.48.55,1.03,1.09,2.25.6,3.31-.12.27-.31.51-.4.79-.19.56.04,1.17.25,1.73.4,1,.79,2,1.19,3.01h28.27c.99,0,1.8-.81,1.8-1.8v-4.26c-.37-1.02-.84-2.02-1.21-3.04-.26-.72-.47-1.5-.33-2.26Z"/>
    <g class="cls-14">
      <path class="cls-11" d="M-7.99,2.73c2.94.96,5.92,1.93,9.01,2.26s6.1-.24,9.13-.83c3.2-.62,6.37-.97,9.61-.5,2.88.41,5.66,1.32,8.44,2.13,3.09.91,6.27,1.7,9.52,1.56.31-.01.31-.5,0-.49-5.86.25-11.24-2.52-16.91-3.53-3.07-.55-6.14-.47-9.2.06s-6.09,1.32-9.22,1.21c-3.53-.13-6.93-1.25-10.26-2.34-.3-.1-.43.37-.13.47h0Z"/>
      <path class="cls-11" d="M35.54,10.67l-9.11-1.12c-3.01-.37-6.04-.84-9.07-1.02s-5.92.08-8.88-.28S2.82,7.25-.02,6.79c-3.07-.5-6.2-.75-9.27-.11-.31.06-.18.53.13.47,5.64-1.17,11.28.71,16.84,1.48,1.4.19,2.8.32,4.22.33,1.48.02,2.97-.04,4.45,0,3,.09,5.99.57,8.97.93,3.41.42,6.82.84,10.23,1.25.31.04.31-.45,0-.49h0Z"/>
      <path class="cls-11" d="M-1.78.43C.7,1.73,3.41,2.88,6.27,2.38c1.43-.25,2.78-.84,4.15-1.32C11.88.54,13.4.19,14.95.01c.31-.03.31-.52,0-.49-1.44.16-2.86.46-4.24.92s-2.62,1.02-3.99,1.35C3.78,2.49,1.02,1.36-1.54,0c-.28-.15-.52.27-.25.42h0Z"/>
      <path class="cls-11" d="M23.17-.16c1.54,1.08,3.39,1.56,5.22,1.87,2.12.37,4.26.61,6.41.76.31.02.31-.46,0-.49-2.1-.15-4.2-.38-6.28-.75-1.79-.31-3.59-.76-5.1-1.83-.26-.18-.5.24-.25.42h0Z"/>
      <path class="cls-11" d="M35.9,26.57c-1.53.36-3.11.75-4.34,1.78-.68.57-1.24,1.29-1.82,1.96-.64.75-1.29,1.5-1.93,2.26-.18.21.13.52.31.31.6-.7,1.19-1.39,1.79-2.09s1.12-1.37,1.76-1.95c1.2-1.09,2.81-1.48,4.34-1.84.27-.06.16-.48-.12-.42h0Z"/>
      <path class="cls-11" d="M35.3,25.39c-4.4,1.45-8.82,2.91-12.94,5.07-.57.3-1.13.61-1.68.93s-1.13.63-1.77.76c-.27.05-.16.47.12.42,1.06-.21,1.98-.88,2.91-1.39,1.02-.56,2.05-1.07,3.11-1.54,2.16-.98,4.38-1.8,6.62-2.57,1.25-.43,2.5-.84,3.75-1.25.27-.09.15-.51-.12-.42h0Z"/>
      <path class="cls-11" d="M-5.79,22.02c4.65,1.44,9.47,2.22,14.3,2.82,2.45.31,4.93.64,7.41.47,1.27-.09,2.52-.28,3.78-.41s2.48-.23,3.72-.32c2.82-.21,5.64-.41,8.45-.62.29-.02.29-.46,0-.44-2.48.18-4.95.36-7.43.55-2.49.18-4.96.45-7.43.71s-4.91.06-7.36-.24-4.87-.62-7.29-1.05c-2.72-.48-5.41-1.09-8.04-1.9-.28-.09-.39.33-.12.42h0Z"/>
      <path class="cls-11" d="M32.09,23.85c-.87.71-2.19.8-3.25.97-1.25.19-2.51.32-3.77.42-2.45.19-4.91.24-7.36.32-5.02.17-10.04.65-15.03,1.27-2.73.34-5.35.93-7.93,1.87-.26.1-.15.52.12.42,2.34-.85,4.71-1.43,7.17-1.77s5.1-.59,7.66-.83,5.1-.42,7.66-.51,5.01-.14,7.51-.32c1.37-.1,2.74-.24,4.09-.45,1.17-.18,2.5-.3,3.44-1.08.22-.18-.09-.48-.31-.31h0Z"/>
      <path class="cls-11" d="M-2.04,31.44c1.01-.81,2.26-1.22,3.51-1.44,1.36-.25,2.76-.35,4.14-.45,2.7-.21,5.71-.32,8.2.93,1.16.58,2.19,1.48,2.57,2.77.08.27.5.15.42-.12-.73-2.49-3.45-3.58-5.8-3.93-1.58-.24-3.18-.23-4.77-.12-1.47.1-2.95.21-4.41.44s-2.98.67-4.18,1.63c-.22.18.09.48.31.31h0Z"/>
      <path class="cls-11" d="M-5.49,16.29c2.34.74,4.58,1.74,6.86,2.64,2.27.9,4.6,1.73,7.02,2.08s4.88.26,7.31.02c2.46-.24,4.9-.63,7.36-.83,2.39-.19,4.83-.22,7.19.29.3.06.59.13.88.21.37.1.53-.48.16-.58-2.34-.63-4.78-.73-7.19-.59s-4.9.51-7.35.79-4.88.46-7.31.22-4.78-.98-7.06-1.86c-2.29-.88-4.53-1.89-6.85-2.69-.29-.1-.58-.2-.87-.29-.37-.12-.53.46-.16.58h0Z"/>
      <path class="cls-11" d="M-2.41,13.52c2.18.22,3.97,1.66,5.83,2.67,2.03,1.1,4.28,1.65,6.57,1.83s4.67,0,6.98-.26,4.84-.66,7.28-.8,4.9-.07,7.25.59c.29.08.57.17.85.27.37.13.52-.46.16-.58-2.32-.8-4.8-1-7.24-.93s-4.92.43-7.37.74-4.67.52-7.01.43-4.58-.51-6.64-1.53c-1.94-.96-3.69-2.42-5.84-2.9-.27-.06-.55-.1-.83-.13-.16-.02-.3.15-.3.3,0,.18.14.28.3.3h0Z"/>
      <path class="cls-11" d="M33.1,11.58c-2.66.03-5.29.46-7.91.91s-5.23.93-7.88,1.02-5.4-.28-8.06-.74-5.22-.96-7.86-1.14c-2.49-.17-5.06-.06-7.46.69-.29.09-.58.19-.86.3-.36.14-.2.72.16.58,2.33-.89,4.85-1.11,7.33-1.01,2.62.11,5.2.58,7.77,1.03s5.34.91,8.04.91,5.27-.42,7.87-.86,5.23-.94,7.88-1.06c.33-.01.65-.02.98-.03.39,0,.39-.61,0-.6h0Z"/>
    </g>
    <g>
      <g>
        <path class="cls-7" d="M18.9,29.06c1.48-3.91,5.07-6.15,9.07-6.93-.51,1.22-1.27,2.34-2.23,3.26-.25.24-.55.48-.9.51-.38.03-.76-.2-1.13-.12-.05,0-.09.03-.12.06-.03.04-.02.11-.02.16.06.41.09.83.09,1.25,0,.06,0,.13-.04.17-.04.04-.11.05-.17.05-.3.01-.61-.02-.9-.08-.15.27.09.6.06.91-.03.31-.31.53-.58.69-.98.6-2.08,1-3.22,1.19-.47.08-.16-.65.09-1.13"/>
        <path class="cls-7" d="M19.23,29.18c1.45-3.75,4.98-5.95,8.8-6.71l-.38-.47c-.28.67-.63,1.3-1.06,1.88-.39.53-.84,1.12-1.39,1.5s-1.22-.23-1.78.15.1,1.28-.13,1.76l.18-.19c-.21.12-.67-.02-.89-.06-.15-.03-.31.09-.36.22-.08.22-.08.4-.03.62.06.32.11.47-.18.7-.43.33-.99.57-1.49.76s-1.03.35-1.57.46c-.07.01-.13.02-.2.04.1.16.15.2.16.12.02-.02.04-.17.06-.21.06-.2.16-.39.26-.57.21-.4-.45-.65-.65-.25-.19.37-.56,1.03-.24,1.42.17.21.43.2.67.16.38-.06.75-.16,1.12-.28.73-.23,1.44-.54,2.09-.94.28-.17.55-.38.68-.7.06-.15.08-.31.06-.47-.02-.19-.15-.42-.08-.6l-.36.22c.36.07.91.2,1.25,0,.31-.19.25-.58.24-.89,0-.21-.02-.42-.04-.63,0-.07-.02-.14-.02-.21-.01-.12-.01-.09,0,.1.02.03.21.03.25.04.4.08.76.15,1.14-.03.68-.31,1.23-1.04,1.67-1.62.53-.69.96-1.45,1.3-2.25.1-.24-.13-.52-.38-.47-4.06.81-7.8,3.17-9.33,7.15-.16.42.49.67.65.25h0Z"/>
      </g>
      <path class="cls-13" d="M26.79,22.75c-1.59.72-2.98,1.92-4.29,3.06s-2.61,2.41-3.8,3.73c-.15.17.13.37.28.21,1.17-1.3,2.43-2.51,3.74-3.66s2.65-2.31,4.21-3.02c.2-.09.06-.41-.15-.32h0Z"/>
      <path class="cls-13" d="M23.97,25.04c.48.02.96.01,1.44,0,.22-.01.16-.35-.06-.34-.45.02-.89.02-1.34,0-.22,0-.26.34-.03.35h0Z"/>
      <path class="cls-13" d="M22.38,26.14c.07.33.21.63.43.88.15.17.42-.05.27-.22-.18-.21-.3-.45-.36-.71-.04-.22-.39-.16-.34.06h0Z"/>
      <path class="cls-13" d="M21.45,27.4c.12.35.18.71.18,1.08,0,.22.35.26.35.03,0-.43-.08-.85-.21-1.26-.07-.21-.39-.07-.32.15h0Z"/>
    </g>
    <g>
      <g>
        <path class="cls-5" d="M10.87,12.4c-3.12-2.79-3.93-6.93-3.23-10.95.96.91,1.73,2.03,2.24,3.25.14.32.26.68.16,1.02-.11.37-.45.64-.51,1.01,0,.05,0,.1.02.14.03.05.09.06.14.07.41.09.81.22,1.2.37.06.02.12.05.14.1.03.05,0,.12-.01.17-.1.29-.23.56-.4.81.2.24.59.13.87.27.28.14.38.48.44.79.2,1.13.19,2.3-.03,3.43-.09.47-.67-.08-1.03-.49"/>
        <path class="cls-5" d="M11.03,12.24c-3.01-2.72-3.83-6.84-3.17-10.72l-.39.1c.56.54,1.05,1.13,1.47,1.78.19.31.37.62.53.95.18.37.47.88.35,1.31-.11.37-.86,1.05-.37,1.42.25.19.7.21.99.31.08.03.2.05.26.09.11.08.08.01.05.16-.04.22-.21.45-.33.64-.05.08-.04.21.04.28.32.3.87.13,1.11.5.12.18.14.45.17.66.05.31.08.62.09.94.03.58,0,1.16-.09,1.73,0,.03-.05.41-.08.42,0,0-.2-.15-.18-.13-.17-.13-.32-.3-.46-.46-.2-.22-.53.11-.33.33.24.27.74.9,1.18.7.23-.1.25-.38.29-.6.07-.4.11-.8.13-1.21.03-.74,0-1.55-.19-2.27-.07-.25-.19-.52-.41-.67-.27-.18-.68-.07-.91-.28l.04.28c.17-.27.45-.68.45-1.02s-.33-.42-.59-.51c-.22-.08-.44-.14-.67-.2-.08-.02-.24-.05-.26-.08-.01-.03.12-.24.14-.26.19-.32.4-.58.41-.97,0-.75-.52-1.58-.9-2.19-.45-.73-.99-1.39-1.61-1.99-.12-.11-.36-.08-.39.1-.69,4.04.15,8.33,3.29,11.17.22.2.55-.13.33-.33h0Z"/>
      </g>
      <path class="cls-10" d="M7.8,2.77c.11,1.75.72,3.47,1.33,5.1s1.31,3.3,2.12,4.88c.1.2.4.02.3-.18-.79-1.55-1.48-3.17-2.08-4.8s-1.21-3.3-1.31-5.01c-.01-.22-.36-.22-.35,0h0Z"/>
      <path class="cls-10" d="M8.91,6.18c.19-.44.36-.89.51-1.34.07-.21-.27-.31-.34-.09-.14.43-.3.85-.47,1.26-.09.2.21.38.3.18h0Z"/>
      <path class="cls-10" d="M9.29,7.97c.33.05.66.03.98-.08.21-.08.12-.41-.09-.34-.26.09-.52.13-.79.08-.22-.04-.31.3-.09.34h0Z"/>
      <path class="cls-10" d="M9.98,9.43c.38.02.75.09,1.11.23.21.08.3-.26.09-.34-.39-.14-.79-.22-1.21-.24-.22,0-.22.34,0,.35h0Z"/>
      <g>
        <path class="cls-12" d="M8.27,12.92c-2.55-1.04-3.97-3.43-4.42-6.08.8.35,1.52.88,2.11,1.52.16.17.31.37.32.6.01.25-.14.49-.1.74,0,.03.02.06.04.08.03.02.07.02.1.01.27-.03.55-.04.82-.04.04,0,.08,0,.11.03.03.03.03.07.03.11,0,.2-.02.4-.07.59.18.1.39-.05.6-.03.21.02.34.21.45.39.38.66.63,1.39.74,2.14.04.31-.43.1-.74-.08"/>
        <path class="cls-12" d="M8.34,12.69c-2.45-1.02-3.81-3.39-4.25-5.92l-.34.26c.5.23.97.51,1.4.85.19.15.36.32.53.49.25.26.42.44.35.83-.05.27-.17.72.2.81.19.05.47-.03.67-.03.07,0,.34.06.23-.05-.07-.09-.08-.05-.05.1,0,.13-.03.26-.06.38-.03.13.04.24.16.29.3.11.62-.13.85.17.19.25.32.59.43.88s.2.59.26.9c.02.09.04.17.05.26.1,0,.09-.02-.01-.03-.13-.02-.26-.11-.37-.17-.26-.14-.5.26-.23.4.25.13.7.41.97.18.29-.24.03-.86-.05-1.15-.15-.51-.35-1.05-.65-1.5-.11-.16-.25-.32-.43-.39-.23-.08-.47.08-.69,0l.16.29c.07-.34.23-.93-.24-1.02-.15-.03-.32,0-.47,0-.05,0-.38.07-.41.03.11.11.16-.34.17-.42.01-.1.02-.2,0-.3-.09-.5-.62-.92-.99-1.23-.47-.39-.99-.71-1.54-.97-.19-.09-.38.06-.34.26.47,2.7,1.98,5.16,4.58,6.24.28.12.4-.33.12-.45h0Z"/>
      </g>
      <path class="cls-6" d="M4.2,7.67c.45,1.05,1.2,1.97,1.93,2.84s1.55,1.77,2.41,2.58c.16.15.41-.09.25-.25-.83-.78-1.6-1.63-2.34-2.5s-1.49-1.8-1.94-2.85c-.09-.21-.39-.03-.3.18h0Z"/>
      <path class="cls-6" d="M5.44,9.15c.02-.3.02-.61.02-.91,0-.22-.35-.22-.35,0,0,.31,0,.61-.02.91-.01.22.33.22.35,0h0Z"/>
      <path class="cls-6" d="M6.36,10.57c.23-.04.43-.14.61-.29s-.08-.39-.25-.25c-.13.11-.29.17-.45.2-.09.02-.15.13-.12.21.03.1.12.14.21.12h0Z"/>
      <path class="cls-6" d="M7.08,11.33c.24-.07.48-.11.73-.11.22,0,.22-.35,0-.35-.28,0-.55.04-.82.12-.21.07-.12.4.09.34h0Z"/>
    </g>
    <g>
      <path class="cls-3" d="M30.13,20.95c-.02-.56-.19-1.03-.5-1.41-.18-.22-.4-.38-.65-.5.04-.09.08-.19.11-.29.07-.22.12-.46.15-.74,0,0,0-.01,0-.02.11-1.18.2-2.39.26-3.59.06-1.2.09-2.5.09-3.87,0-.55-.15-1-.45-1.35-.33-.38-.8-.6-1.31-.6-.35,0-.78,0-1.33,0-.52,0-1.09.01-1.69.02-.61,0-1.25.01-1.89.03l-1.9.03c-.63.01-1.22.03-1.75.04-.53.02-.99.03-1.36.04-.02,0-.03,0-.05,0-.85.06-1.31.44-1.54.75-.05.06-.09.13-.13.2-.07-.14-.15-.26-.25-.38-.33-.38-.8-.6-1.31-.6-.35,0-.78,0-1.33,0-.52,0-1.09.01-1.69.02-.61,0-1.24.01-1.89.03l-1.9.03c-.63.01-1.22.03-1.75.04-.53.02-.99.03-1.36.04-.02,0-.03,0-.05,0-.85.06-1.31.44-1.54.74-.28.37-.43.86-.44,1.49-.02.81.2,1.43.64,1.83.3.28.61.42.87.5-.41.2-.63.5-.75.7-.23.41-.33.9-.29,1.51.01.3.06,1.19.68,1.72.25.22.69.47,1.35.47.03,0,.06,0,.08,0,.28,0,.66-.01,1.12-.03-.02.14-.04.3-.04.45v1c-.08,0-.15,0-.23,0-.46.02-.95.04-1.44.06-.63.03-1.17.28-1.55.75-.35.42-.53.97-.53,1.62,0,.72.21,1.29.62,1.7.27.27.76.6,1.53.6.03,0,.05,0,.08,0,1.76-.02,3.48-.09,5.11-.19,1.63-.1,3.3-.24,4.97-.41.46-.04.88-.21,1.24-.48.08.12.17.23.27.33.27.27.76.6,1.53.6.03,0,.05,0,.08,0,1.76-.02,3.48-.09,5.11-.19,1.63-.1,3.3-.24,4.97-.41.48-.05.91-.22,1.28-.51.49-.39.74-.99.74-1.78,0-.02,0-.03,0-.05ZM19.56,18.15v1c-.08,0-.15,0-.23,0-.46.02-.94.04-1.44.06-.54.02-1.02.22-1.38.57-.02-.03-.05-.07-.08-.1-.18-.22-.4-.38-.65-.5.04-.09.08-.19.11-.29.07-.22.12-.46.15-.74,0,0,0-.01,0-.02.11-1.18.2-2.39.26-3.59.03-.6.05-1.23.07-1.88.05.05.1.11.15.15.3.28.61.42.87.5-.41.2-.63.5-.75.7-.23.41-.33.9-.29,1.51.01.3.06,1.19.68,1.72.25.22.69.47,1.35.47.03,0,.06,0,.08,0,.28,0,.65-.01,1.12-.03-.02.14-.04.3-.04.45Z"/>
      <path class="cls-2" d="M10.4,19.2c.01.36.02.73.02,1.11.75-.03,1.49-.06,2.23-.08.74-.02,1.5-.03,2.28-.04.25,0,.45.09.59.26.14.17.22.4.23.7,0,.42-.1.71-.29.86-.19.15-.41.24-.66.26-1.66.17-3.3.31-4.93.41-1.63.1-3.31.16-5.06.19-.32.01-.57-.07-.75-.26-.18-.18-.27-.47-.27-.87,0-.37.09-.66.26-.87.17-.2.4-.31.7-.32.49-.02.97-.04,1.43-.06.47-.02.93-.04,1.38-.06-.01-.36-.02-.73-.02-1.09v-1.04c0-.47.16-.78.49-.94.26-.12.57-.19.92-.2.35-.01.66.03.92.14.19.08.32.18.39.32.07.13.11.31.12.54.01.33.02.68.02,1.06ZM10.51,14.11c.68-.03,1.28-.06,1.81-.09v-.78c0-.26,0-.53.02-.82h-2.35c-.48,0-.97,0-1.48,0-.51,0-1.01,0-1.48,0s-.92,0-1.33,0c-.41,0-.74-.01-1.01-.03-.19-.01-.38-.1-.56-.26-.18-.16-.27-.47-.26-.93.01-.37.08-.64.2-.81.12-.16.35-.26.68-.28.37-.01.83-.03,1.36-.04.53-.02,1.11-.03,1.73-.04.62-.01,1.25-.02,1.9-.03.65-.01,1.28-.02,1.88-.03.61,0,1.17-.01,1.7-.02.52,0,.96,0,1.31,0,.17,0,.31.06.42.19.11.13.16.32.16.58,0,1.36-.03,2.64-.09,3.82-.06,1.18-.14,2.36-.26,3.53-.02.2-.06.38-.1.53-.05.15-.12.27-.21.37-.1.1-.23.17-.39.22-.16.05-.37.08-.62.08-.48,0-.79-.1-.95-.29-.15-.19-.24-.49-.25-.9-.01-.3-.02-.58-.03-.86,0-.28,0-.56,0-.84-.5.03-1.09.07-1.76.12-.68.05-1.35.09-2.03.12-.68.03-1.31.07-1.9.09-.59.03-1.05.04-1.36.04-.27.01-.49-.05-.65-.19-.16-.14-.25-.43-.27-.89-.02-.37.02-.66.14-.86.11-.2.33-.31.66-.33.35-.03.83-.07,1.42-.1.6-.03,1.23-.07,1.91-.11.68-.04,1.35-.08,2.04-.11Z"/>
      <path class="cls-2" d="M23.61,19.21c.01.36.02.73.02,1.11.75-.03,1.49-.06,2.23-.08.74-.02,1.5-.03,2.28-.04.25,0,.45.09.59.26.14.17.22.4.23.7,0,.42-.1.71-.29.86-.19.15-.41.24-.66.26-1.66.17-3.3.31-4.92.41-1.62.1-3.31.16-5.06.19-.32.01-.57-.07-.75-.26-.18-.18-.27-.47-.27-.87,0-.37.09-.66.26-.87.17-.2.4-.31.7-.32.49-.02.97-.04,1.43-.06.47-.02.93-.04,1.38-.06-.01-.36-.02-.73-.02-1.09v-1.04c0-.46.16-.78.49-.94.26-.12.57-.19.92-.2.35-.01.66.03.92.14.19.08.32.18.39.31.07.13.11.31.12.54.01.33.02.68.02,1.05ZM23.71,14.12c.68-.03,1.28-.06,1.81-.09v-.78c0-.26,0-.53.02-.82h-2.35c-.48,0-.97,0-1.48,0-.51,0-1.01,0-1.48,0s-.92,0-1.33,0c-.41,0-.74-.01-1.01-.03-.19-.01-.38-.1-.56-.26-.18-.16-.27-.47-.26-.93.01-.37.08-.64.2-.81.12-.16.35-.26.68-.28.37-.01.83-.03,1.36-.04.53-.02,1.11-.03,1.73-.04.62-.01,1.25-.02,1.9-.03.65-.01,1.28-.02,1.88-.03.61,0,1.17-.01,1.7-.02.52,0,.96,0,1.31,0,.17,0,.31.06.42.19.11.12.16.32.16.58,0,1.36-.03,2.63-.09,3.81-.06,1.18-.14,2.35-.26,3.52-.02.2-.06.38-.1.53-.05.15-.12.27-.21.37-.1.1-.23.17-.39.22-.16.05-.37.08-.62.08-.48,0-.79-.1-.95-.29-.15-.19-.24-.49-.25-.9-.01-.29-.02-.58-.03-.86,0-.28,0-.56,0-.84-.5.03-1.09.07-1.76.12-.68.05-1.35.09-2.03.12-.68.03-1.31.07-1.9.09-.59.03-1.05.04-1.36.04-.27.01-.49-.05-.65-.19-.16-.14-.25-.43-.27-.88-.02-.37.02-.66.14-.86.11-.2.33-.31.66-.33.35-.03.83-.07,1.42-.1.6-.03,1.23-.07,1.91-.11.68-.04,1.35-.08,2.04-.11Z"/>
      <path class="cls-4" d="M10.4,19.47c.01.36.02.72.02,1.09.72-.03,1.43-.06,2.14-.08.71-.02,1.44-.03,2.19-.04.24,0,.43.08.56.25.14.17.21.4.22.69,0,.41-.09.7-.28.85-.19.15-.4.24-.64.26-1.59.17-3.16.3-4.71.4-1.56.1-3.17.16-4.85.19-.3.01-.54-.07-.72-.25-.17-.18-.26-.47-.26-.86,0-.37.08-.66.24-.86.16-.2.39-.31.67-.32.47-.02.92-.04,1.37-.06.45-.02.89-.04,1.32-.06-.01-.36-.02-.72-.02-1.08v-1.03c0-.46.16-.77.47-.92.25-.12.54-.19.88-.2.34-.01.63.03.88.13.18.08.31.18.38.31.07.13.1.31.11.53.01.33.02.67.02,1.04ZM10.5,14.44c.65-.03,1.23-.06,1.73-.08v-.77c0-.26,0-.53.02-.81h-2.25c-.46,0-.93,0-1.42,0-.49,0-.96,0-1.42,0s-.88,0-1.27,0c-.39,0-.71-.01-.96-.03-.19-.01-.36-.1-.54-.26-.17-.16-.26-.47-.24-.92.01-.37.08-.64.2-.8.12-.16.34-.25.65-.28.36-.01.79-.03,1.31-.04.51-.02,1.06-.03,1.66-.04.59-.01,1.2-.02,1.82-.03.62-.01,1.22-.02,1.8-.03.58,0,1.12-.01,1.62-.02.5,0,.92,0,1.26,0,.16,0,.3.06.4.19.1.12.15.31.15.57,0,1.35-.03,2.6-.08,3.77-.05,1.17-.14,2.33-.24,3.48-.02.2-.05.38-.1.52-.04.15-.11.27-.2.36-.09.1-.22.17-.38.22-.16.05-.36.08-.6.08-.46,0-.76-.1-.91-.29-.15-.19-.23-.49-.24-.89-.01-.29-.02-.57-.02-.85,0-.27,0-.55,0-.83-.48.03-1.04.07-1.69.12-.65.04-1.29.08-1.94.12-.65.03-1.25.06-1.82.09-.57.03-1,.04-1.31.04-.26.01-.47-.05-.62-.19-.15-.13-.24-.43-.26-.87-.02-.37.02-.65.13-.85.11-.2.32-.31.64-.33.34-.03.79-.07,1.36-.1.57-.03,1.18-.07,1.83-.11.65-.04,1.3-.08,1.95-.11Z"/>
      <path class="cls-9" d="M9.88,19.47c.01.36.02.72.02,1.09.72-.03,1.43-.06,2.14-.08.71-.02,1.44-.03,2.19-.04.24,0,.43.08.56.25.14.17.21.4.22.69,0,.41-.09.7-.28.85-.19.15-.4.24-.64.26-1.59.17-3.16.3-4.71.4-1.56.1-3.17.16-4.85.19-.3.01-.54-.07-.72-.25-.17-.18-.26-.47-.26-.86,0-.37.08-.66.24-.86.16-.2.39-.31.67-.32.47-.02.92-.04,1.37-.06.45-.02.89-.04,1.32-.06-.01-.36-.02-.72-.02-1.08v-1.03c0-.46.16-.77.47-.92.25-.12.54-.19.88-.2.34-.01.63.03.88.13.18.08.31.18.38.31.07.13.1.31.11.53.01.33.02.67.02,1.04ZM9.98,14.44c.65-.03,1.23-.06,1.73-.08v-.77c0-.26,0-.53.02-.81h-2.25c-.46,0-.93,0-1.42,0-.49,0-.96,0-1.42,0s-.88,0-1.27,0c-.39,0-.71-.01-.96-.03-.19-.01-.36-.1-.54-.26-.17-.16-.26-.47-.24-.92.01-.37.08-.64.2-.8.12-.16.34-.25.65-.28.36-.01.79-.03,1.31-.04.51-.02,1.06-.03,1.66-.04.59-.01,1.2-.02,1.82-.03.62-.01,1.22-.02,1.8-.03.58,0,1.12-.01,1.62-.02.5,0,.92,0,1.26,0,.16,0,.3.06.4.19.1.12.15.31.15.57,0,1.35-.03,2.6-.08,3.77-.05,1.17-.14,2.33-.24,3.48-.02.2-.05.38-.1.52-.04.15-.11.27-.2.36-.09.1-.22.17-.38.22-.16.05-.36.08-.6.08-.46,0-.76-.1-.91-.29-.15-.19-.23-.49-.24-.89-.01-.29-.02-.57-.02-.85,0-.27,0-.55,0-.83-.48.03-1.04.07-1.69.12-.65.04-1.29.08-1.94.12-.65.03-1.25.06-1.82.09-.57.03-1,.04-1.31.04-.26.01-.47-.05-.62-.19-.15-.13-.24-.43-.26-.87-.02-.37.02-.65.13-.85.11-.2.32-.31.64-.33.34-.03.79-.07,1.36-.1.57-.03,1.18-.07,1.83-.11.65-.04,1.3-.08,1.95-.11Z"/>
      <path class="cls-4" d="M23.51,19.47c.01.36.02.72.02,1.09.71-.03,1.42-.06,2.12-.08.7-.02,1.43-.03,2.17-.04.24,0,.42.08.56.25.14.17.21.4.22.69,0,.41-.09.7-.28.85-.18.15-.39.24-.63.26-1.58.17-3.14.3-4.68.4-1.55.1-3.15.16-4.81.19-.3.01-.54-.07-.71-.25-.17-.18-.26-.47-.26-.86,0-.37.08-.66.24-.86.16-.2.38-.31.66-.32.46-.02.92-.04,1.36-.06.44-.02.88-.04,1.31-.06-.01-.36-.02-.72-.02-1.08v-1.03c0-.46.16-.77.47-.92.25-.12.54-.19.88-.2.33-.01.63.03.88.13.18.08.31.18.37.31.06.13.1.31.11.53.01.33.02.67.02,1.04ZM23.61,14.44c.65-.03,1.22-.06,1.72-.08v-.77c0-.26,0-.53.02-.81h-2.24c-.45,0-.92,0-1.41,0-.49,0-.96,0-1.41,0s-.88,0-1.26,0c-.39,0-.71-.01-.96-.03-.18-.01-.36-.1-.53-.26-.17-.16-.25-.47-.24-.92.01-.37.08-.64.19-.8.12-.16.33-.25.65-.28.36-.01.79-.03,1.3-.04.51-.02,1.06-.03,1.65-.04.59-.01,1.19-.02,1.81-.03.62-.01,1.21-.02,1.79-.03.58,0,1.12-.01,1.61-.02.5,0,.91,0,1.25,0,.16,0,.29.06.4.19.1.12.15.31.15.57,0,1.35-.03,2.6-.08,3.77-.05,1.17-.14,2.33-.24,3.48-.02.2-.05.38-.1.52-.04.15-.11.27-.2.36-.09.1-.22.17-.37.22-.16.05-.35.08-.59.08-.45,0-.75-.1-.9-.29-.15-.19-.22-.49-.24-.89-.01-.29-.02-.57-.02-.85,0-.27,0-.55,0-.83-.48.03-1.03.07-1.68.12-.64.04-1.29.08-1.93.12-.64.03-1.25.06-1.81.09-.56.03-.99.04-1.3.04-.26.01-.46-.05-.62-.19-.15-.13-.24-.43-.26-.87-.02-.37.02-.65.13-.85.11-.2.32-.31.63-.33.33-.03.79-.07,1.35-.1.57-.03,1.17-.07,1.82-.11.64-.04,1.29-.08,1.94-.11Z"/>
      <path class="cls-9" d="M22.99,19.47c.01.36.02.72.02,1.09.71-.03,1.42-.06,2.12-.08.7-.02,1.43-.03,2.17-.04.24,0,.42.08.56.25.14.17.21.4.22.69,0,.41-.09.7-.28.85-.18.15-.39.24-.63.26-1.58.17-3.14.3-4.68.4-1.55.1-3.15.16-4.81.19-.3.01-.54-.07-.71-.25-.17-.18-.26-.47-.26-.86,0-.37.08-.66.24-.86.16-.2.38-.31.66-.32.46-.02.92-.04,1.36-.06.44-.02.88-.04,1.31-.06-.01-.36-.02-.72-.02-1.08v-1.03c0-.46.16-.77.47-.92.25-.12.54-.19.88-.2.33-.01.63.03.88.13.18.08.31.18.37.31.06.13.1.31.11.53.01.33.02.67.02,1.04ZM23.09,14.44c.65-.03,1.22-.06,1.72-.08v-.77c0-.26,0-.53.02-.81h-2.24c-.45,0-.92,0-1.41,0-.49,0-.96,0-1.41,0s-.88,0-1.26,0c-.39,0-.71-.01-.96-.03-.18-.01-.36-.1-.53-.26-.17-.16-.25-.47-.24-.92.01-.37.08-.64.19-.8.12-.16.33-.25.65-.28.36-.01.79-.03,1.3-.04.51-.02,1.06-.03,1.65-.04.59-.01,1.19-.02,1.81-.03.62-.01,1.21-.02,1.79-.03.58,0,1.12-.01,1.61-.02.5,0,.91,0,1.25,0,.16,0,.29.06.4.19.1.12.15.31.15.57,0,1.35-.03,2.6-.08,3.77-.05,1.17-.14,2.33-.24,3.48-.02.2-.05.38-.1.52-.04.15-.11.27-.2.36-.09.1-.22.17-.37.22-.16.05-.35.08-.59.08-.45,0-.75-.1-.9-.29-.15-.19-.22-.49-.24-.89-.01-.29-.02-.57-.02-.85,0-.27,0-.55,0-.83-.48.03-1.03.07-1.68.12-.64.04-1.29.08-1.93.12-.64.03-1.25.06-1.81.09-.56.03-.99.04-1.3.04-.26.01-.46-.05-.62-.19-.15-.13-.24-.43-.26-.87-.02-.37.02-.65.13-.85.11-.2.32-.31.63-.33.33-.03.79-.07,1.35-.1.57-.03,1.17-.07,1.82-.11.64-.04,1.29-.08,1.94-.11Z"/>
    </g>
  </g>
</svg>